<?xml version="1.0" encoding="utf-8"?>
<!-- Generator: Adobe Illustrator 15.0.0, SVG Export Plug-In . SVG Version: 6.00 Build 0)  -->
<!DOCTYPE svg PUBLIC "-//W3C//DTD SVG 1.1//EN" "http://www.w3.org/Graphics/SVG/1.1/DTD/svg11.dtd">
<svg version="1.1" xmlns="http://www.w3.org/2000/svg" xmlns:xlink="http://www.w3.org/1999/xlink" x="0px" y="0px" width="104px"
	 height="104px" viewBox="0 0 104 104" enable-background="new 0 0 104 104" xml:space="preserve">
<filter  width="227.6%" height="227.6%" y="-60.3%" x="-63.8%" id="a" filterUnits="objectBoundingBox">
	<feOffset  result="shadowOffsetOuter1" in="SourceAlpha" dy="2"></feOffset>
	<feGaussianBlur  result="shadowBlurOuter1" in="shadowOffsetOuter1" stdDeviation="12"></feGaussianBlur>
	<feColorMatrix  values="0 0 0 0 0 0 0 0 0 0 0 0 0 0 0 0 0 0 0.1 0" in="shadowBlurOuter1"></feColorMatrix>
</filter>
<g id="Слой_1">
	<g>
		<g transform="translate(23 21)">
			<g filter="url(#a)">
				<path d="M29,0C12.984,0,0,12.984,0,29c0,16.016,12.984,29,29,29c16.016,0,29-12.984,29-29C58,12.984,45.016,0,29,0z
					 M31.215,41.035c-0.374-0.357-0.771-0.684-1.166-1.013c-2.831,0.338-5.859-0.307-8.572-1.455
					c-0.878-0.372-1.521-1.137-1.936-2.032C17.479,35.128,16.247,32.688,16,30c-0.044-0.476,0.008-0.936,0.128-1.375
					c-0.926-3.047,0.885-6.94,4.622-6.625c1.516,0.128,2.841,0.374,4.241,0.955c0.76,0.315,1.599,0.774,2.438,1.003
					c0.055-0.048,0.333-0.141,0.731-0.415c0.446-0.297,0.883-0.607,1.312-0.93c0.815-0.603,1.621-1.183,2.504-1.68
					c2.037-1.145,4.362-0.758,6.059,0.782c3.656,3.317,2.718,8.468,0.387,12.395C42.8,38.575,35.826,45.44,31.215,41.035z"/>
			</g>
			<g>
				<path fill="#FFFFFF" d="M29,0C12.984,0,0,12.984,0,29c0,16.016,12.984,29,29,29c16.016,0,29-12.984,29-29
					C58,12.984,45.016,0,29,0z M31.215,41.035c-0.374-0.357-0.771-0.684-1.166-1.013c-2.831,0.338-5.859-0.307-8.572-1.455
					c-0.878-0.372-1.521-1.137-1.936-2.032C17.479,35.128,16.247,32.688,16,30c-0.044-0.476,0.008-0.936,0.128-1.375
					c-0.926-3.047,0.885-6.94,4.622-6.625c1.516,0.128,2.841,0.374,4.241,0.955c0.76,0.315,1.599,0.774,2.438,1.003
					c0.055-0.048,0.333-0.141,0.731-0.415c0.446-0.297,0.883-0.607,1.312-0.93c0.815-0.603,1.621-1.183,2.504-1.68
					c2.037-1.145,4.362-0.758,6.059,0.782c3.656,3.317,2.718,8.468,0.387,12.395C42.8,38.575,35.826,45.44,31.215,41.035z"/>
			</g>
		</g>
	</g>
	<rect x="37.25" y="39.25" fill="#FFFFFF" width="28" height="27.25"/>
</g>
<g id="Слой_2">
	<path fill="#0CBD65" d="M68.247,33.806l-7.109-1.641c-0.772-0.178-1.565,0.226-1.88,0.95l-3.281,7.657
		c-0.287,0.67-0.096,1.456,0.472,1.914l4.143,3.391c-2.461,5.243-6.761,9.605-12.113,12.113l-3.391-4.143
		c-0.465-0.566-1.244-0.758-1.914-0.471l-7.657,3.281c-0.731,0.32-1.135,1.113-0.957,1.887l1.641,7.109
		c0.171,0.738,0.827,1.271,1.6,1.271c17.507,0,31.719-14.186,31.719-31.72C69.519,34.64,68.992,33.977,68.247,33.806z"/>
</g>
</svg>
