<?xml version="1.0" encoding="utf-8"?>
<!-- Generator: Adobe Illustrator 21.0.2, SVG Export Plug-In . SVG Version: 6.00 Build 0)  -->
<svg version="1.1" id="Слой_1" xmlns="http://www.w3.org/2000/svg" xmlns:xlink="http://www.w3.org/1999/xlink" x="0px" y="0px"
	 viewBox="0 0 104 104" style="enable-background:new 0 0 104 104;" xml:space="preserve">
<style type="text/css">
	.st0{fill:#FFFFFF;}
	.st1{display:none;fill:#FCB8CD;}
	.st2{fill:#0CBD65;}
	.st3{fill:none;stroke:#333333;stroke-width:0.7741;stroke-linecap:round;stroke-linejoin:round;}
	.st4{fill:#333333;}
	.st5{fill:none;stroke:#333333;stroke-width:0.6967;stroke-linecap:round;stroke-linejoin:round;}
	.st6{fill:none;}
	.st7{display:none;}
	.st8{fill:#F70808;}
</style>
<g transform="translate(23 21)">
	<g>
		<circle id="b_2_" cx="29" cy="29" r="29"/>
	</g>
	<g>
		<circle id="b_1_" class="st0" cx="29" cy="29" r="29"/>
	</g>
</g>
<path class="st1" d="M64,45.9c0-3.8-2.9-6.9-6.5-6.9c-2.3,0-4.4,1.3-5.5,3.3c-1.1-2-3.2-3.3-5.5-3.3c-3.6,0-6.5,3.1-6.5,6.9
	c0,2.1,0.9,3.9,2.2,5.2l9.2,9.7c0.2,0.2,0.4,0.3,0.6,0.3c0.2,0,0.4-0.1,0.6-0.3l9.2-9.7C63.1,49.8,64,47.9,64,45.9z"/>
<path class="st2" d="M31,68V46l13.1-10l13.1,10v22h-8.8V54h-8.8v14H31 M73,30v38H60.8V43.9L59,42.6V38h-3.5v1.9l-7-5.3V30H73
	 M67.8,54h-3.5v4h3.5V54 M67.8,46h-3.5v4h3.5V46 M67.8,38h-3.5v4h3.5V38z"/>
<g id="g10" transform="matrix(1.3333333,0,0,-1.3333333,0,32)">
	<path id="rect327" class="st3" d="M26.8-34l33.6,7.3c2.6,0.6,5.1-0.8,5.6-3.1l1.9-8.8c0.5-2.2-1.2-4.5-3.8-5.1L30.5-51
		c-2.6-0.6-5.1,0.8-5.6,3.1L23-39C22.5-36.8,24.2-34.5,26.8-34z"/>
	<path id="ellipse333" class="st4" d="M55.5-28.9c0.8,0.1,1.6-0.4,1.7-1.1c0.1-0.8-0.5-1.5-1.4-1.6c-0.8-0.1-1.6,0.4-1.7,1.1
		C54.1-29.7,54.7-29,55.5-28.9z"/>
	<path id="ellipse335" class="st4" d="M27.5-35.3c0.8,0.1,1.5-0.4,1.6-1.2s-0.5-1.5-1.3-1.6s-1.5,0.4-1.6,1.2S26.7-35.4,27.5-35.3z"
		/>
	<path id="path337" class="st5" d="M27.6-36c-0.2,0.5,12.1,13.9,12.1,13.9l16.6-7.6"/>
</g>
<rect x="33.9" y="79.5" transform="matrix(0.9671 -0.2544 0.2544 0.9671 -19.3257 18.1747)" class="st6" width="53.3" height="8.7"/>
<g class="st7">
</g>
<g>
	<path class="st8" d="M40.7,91.4L40.7,91.4l0.1-6.5l2.1-0.5l-0.4,8.9L40,93.8L35.8,86l2.1-0.5L40.7,91.4z"/>
	<path class="st8" d="M49.6,84.4L46,85.2l0.4,2l3.3-0.7l0.3,1.4l-3.3,0.7l0.5,2.2l3.7-0.8l0.3,1.4l-5.7,1.3l-1.8-8.4l5.6-1.2
		L49.6,84.4z"/>
	<path class="st8" d="M56.4,87.4L56.4,87.4l-1.2-5.7l1.8-0.4l1.8,8.4l-2.3,0.5l-3.7-5.3l0,0l1.3,5.9l-1.8,0.4l-1.8-8.4l2.3-0.5
		L56.4,87.4z"/>
	<path class="st8" d="M61.8,80.2c0.7-0.2,1.3-0.2,1.7-0.1c0.5,0.1,0.9,0.3,1.2,0.6c0.3,0.3,0.6,0.7,0.8,1.2c0.2,0.5,0.4,1,0.5,1.6
		c0.2,0.7,0.3,1.4,0.3,2c0,0.6-0.1,1.1-0.3,1.5c-0.2,0.4-0.5,0.7-0.9,1c-0.4,0.3-0.9,0.5-1.6,0.6l-3.2,0.7L58.5,81L61.8,80.2z
		 M63,87.5c0.4-0.1,0.6-0.2,0.8-0.3c0.2-0.1,0.3-0.4,0.4-0.6c0.1-0.3,0.1-0.6,0-1c0-0.4-0.1-0.9-0.3-1.4c-0.1-0.5-0.2-0.9-0.3-1.2
		c-0.1-0.4-0.3-0.6-0.4-0.8c-0.2-0.2-0.4-0.4-0.6-0.4c-0.3-0.1-0.6-0.1-1,0l-0.8,0.2l1.3,5.9L63,87.5z"/>
	<path class="st8" d="M66.5,79.2l2-0.4l1.8,8.4l-2,0.4L66.5,79.2z"/>
	<path class="st8" d="M73.3,77.7c0.7-0.2,1.3-0.2,1.7-0.1c0.5,0.1,0.9,0.3,1.2,0.6c0.3,0.3,0.6,0.7,0.8,1.2c0.2,0.5,0.4,1,0.5,1.6
		c0.2,0.7,0.3,1.4,0.3,2c0,0.6-0.1,1.1-0.3,1.5c-0.2,0.4-0.5,0.7-0.9,1c-0.4,0.3-0.9,0.5-1.6,0.6l-3.2,0.7l-1.8-8.4L73.3,77.7z
		 M74.5,84.9c0.4-0.1,0.6-0.2,0.8-0.3c0.2-0.1,0.3-0.4,0.4-0.6c0.1-0.3,0.1-0.6,0-1c0-0.4-0.1-0.9-0.3-1.4c-0.1-0.5-0.2-0.9-0.3-1.2
		c-0.1-0.4-0.3-0.6-0.4-0.8c-0.2-0.2-0.4-0.4-0.6-0.4c-0.3-0.1-0.6-0.1-1,0l-0.8,0.2l1.3,5.9L74.5,84.9z"/>
	<path class="st8" d="M78.4,79.1c0-0.6,0-1,0.2-1.5c0.2-0.4,0.4-0.8,0.8-1.1c0.4-0.3,1-0.6,1.7-0.7c0.8-0.2,1.4-0.2,1.9-0.1
		c0.5,0.1,0.9,0.3,1.2,0.7c0.3,0.3,0.6,0.8,0.8,1.3c0.2,0.5,0.4,1.1,0.5,1.7c0.1,0.6,0.2,1.2,0.3,1.8c0,0.5,0,1-0.2,1.5
		c-0.2,0.4-0.4,0.8-0.8,1.1c-0.4,0.3-1,0.5-1.7,0.7c-0.8,0.2-1.4,0.2-1.9,0.1s-0.9-0.3-1.2-0.7c-0.3-0.3-0.6-0.8-0.8-1.3
		c-0.2-0.5-0.4-1.1-0.5-1.7C78.5,80.3,78.4,79.7,78.4,79.1z M81,81.9c0.1,0.4,0.3,0.7,0.4,0.9s0.3,0.4,0.5,0.4
		c0.2,0.1,0.5,0.1,0.8,0c0.3-0.1,0.5-0.2,0.7-0.3c0.2-0.2,0.3-0.4,0.3-0.6c0-0.3,0-0.6,0-1c-0.1-0.4-0.1-0.9-0.3-1.4
		c-0.1-0.6-0.2-1-0.4-1.4c-0.1-0.4-0.3-0.7-0.4-0.9c-0.2-0.2-0.3-0.4-0.5-0.5c-0.2-0.1-0.5-0.1-0.8,0c-0.3,0.1-0.5,0.2-0.7,0.3
		c-0.2,0.2-0.3,0.4-0.3,0.6c0,0.3,0,0.6,0,1c0.1,0.4,0.1,0.9,0.3,1.4C80.8,81,80.9,81.5,81,81.9z"/>
</g>
</svg>
