<?xml version="1.0" encoding="utf-8"?>
<!-- Generator: Adobe Illustrator 21.0.2, SVG Export Plug-In . SVG Version: 6.00 Build 0)  -->
<svg version="1.1" id="Слой_1" xmlns="http://www.w3.org/2000/svg" xmlns:xlink="http://www.w3.org/1999/xlink" x="0px" y="0px"
	 viewBox="0 0 104 104" style="enable-background:new 0 0 104 104;" xml:space="preserve">
<style type="text/css">
	.st0{filter:url(#a);}
	.st1{fill:#FFFFFF;}
	.st2{display:none;fill:#FCB8CD;}
	.st3{fill:#0CBD65;}
	.st4{fill:none;stroke:#333333;stroke-width:0.7741;stroke-linecap:round;stroke-linejoin:round;}
	.st5{fill:#FF0000;}
	.st6{fill:#333333;}
	.st7{fill:none;stroke:#333333;stroke-width:0.6967;stroke-linecap:round;stroke-linejoin:round;}
</style>
<filter  filterUnits="objectBoundingBox" height="227.6%" id="a" width="227.6%" x="-63.8%" y="-60.3%">
	<feOffset  dy="2" in="SourceAlpha" result="shadowOffsetOuter1"></feOffset>
	<feGaussianBlur  in="shadowOffsetOuter1" result="shadowBlurOuter1" stdDeviation="12"></feGaussianBlur>
	<feColorMatrix  in="shadowBlurOuter1" values="0 0 0 0 0 0 0 0 0 0 0 0 0 0 0 0 0 0 0.1 0"></feColorMatrix>
</filter>
<g transform="translate(23 21)">
	<g class="st0">
		<circle id="b_2_" cx="29" cy="29" r="29"/>
	</g>
	<g>
		<circle id="b_1_" class="st1" cx="29" cy="29" r="29"/>
	</g>
</g>
<path class="st2" d="M64,45.9c0-3.8-2.9-6.9-6.5-6.9c-2.3,0-4.4,1.3-5.5,3.3c-1.1-2-3.2-3.3-5.5-3.3c-3.6,0-6.5,3.1-6.5,6.9
	c0,2.1,0.9,3.9,2.2,5.2l9.2,9.7c0.2,0.2,0.4,0.3,0.6,0.3c0.2,0,0.4-0.1,0.6-0.3l9.2-9.7C63.1,49.8,64,47.9,64,45.9z"/>
<path class="st3" d="M31,68V46l13.1-10l13.1,10v22h-8.8V54h-8.8v14H31 M73,30v38H60.8V43.9L59,42.6V38h-3.5v1.9l-7-5.3V30H73
	 M67.8,54h-3.5v4h3.5V54 M67.8,46h-3.5v4h3.5V46 M67.8,38h-3.5v4h3.5V38z"/>
<g id="g10" transform="matrix(1.3333333,0,0,-1.3333333,0,32)">
	<path id="rect327" class="st4" d="M26.8-34l33.6,7.3c2.6,0.6,5.1-0.8,5.6-3.1l1.9-8.8c0.5-2.2-1.2-4.5-3.8-5.1l-33.6-7.3
		c-2.6-0.6-5.1,0.8-5.6,3.1L23-39C22.5-36.8,24.2-34.5,26.8-34z"/>
	<g id="text331" transform="matrix(0.99999574,0.00291754,0.00291754,-0.99999574,0,0)">
		<path id="path117" class="st5" d="M32.9,40.3c0.1-0.6,2.1-0.8,2.9-0.5l0.5-1.2c-0.2,0-1-0.2-2.6,0c-2.4,0.4-3.1,1.3-3.1,2.1
			c0,2,4.4,0.6,4.3,1.5c-0.1,0.6-2.4,0.9-3.4,0.4l-0.8,1.2c0.7,0.2,1.9,0.2,3.2,0.1c1.3-0.2,3.5-0.8,3.4-2.2
			C37.1,39.9,32.8,41.1,32.9,40.3z"/>
		<path id="path119" class="st5" d="M41.8,36.9c-2.3,0.5-4,2-3.7,3.4s2.5,2.1,4.8,1.6c2.3-0.5,4-2,3.7-3.4S44,36.4,41.8,36.9z
			 M42.6,40.8c-1.2,0.3-2.3-0.1-2.4-0.9c-0.2-0.7,0.7-1.5,1.9-1.8c1.2-0.3,2.3,0.1,2.4,0.9C44.6,39.7,43.8,40.5,42.6,40.8z"/>
		<path id="path121" class="st5" d="M50.3,39.1l-0.8-3.7l-2.2,0.5l1.1,4.9l5.5-1.2l-0.2-1.1L50.3,39.1z"/>
		<path id="path123" class="st5" d="M57.4,33.7l-3.1,0.7l1.1,4.9l3.1-0.7c2.9-0.6,4.1-2.1,3.8-3.4C62,33.9,60.3,33.1,57.4,33.7z
			 M58,37.5l-0.8,0.2L56.7,35l0.8-0.2c1.8-0.4,2.6,0,2.8,0.8C60.4,36.3,59.8,37.1,58,37.5z"/>
	</g>
	<path id="ellipse333" class="st6" d="M55.5-28.9c0.8,0.1,1.6-0.4,1.7-1.1c0.1-0.8-0.5-1.5-1.4-1.6c-0.8-0.1-1.6,0.4-1.7,1.1
		C54.1-29.7,54.7-29,55.5-28.9z"/>
	<path id="ellipse335" class="st6" d="M27.5-35.3c0.8,0.1,1.5-0.4,1.6-1.2c0.1-0.8-0.5-1.5-1.3-1.6c-0.8-0.1-1.5,0.4-1.6,1.2
		C26.1-36.1,26.7-35.4,27.5-35.3z"/>
	<path id="path337" class="st7" d="M27.6-36c-0.2,0.5,12.1,13.9,12.1,13.9l16.6-7.6"/>
</g>
</svg>
