<?xml version="1.0" encoding="utf-8"?>
<!-- Generator: Adobe Illustrator 21.0.2, SVG Export Plug-In . SVG Version: 6.00 Build 0)  -->
<svg version="1.1" id="Слой_1" xmlns="http://www.w3.org/2000/svg" xmlns:xlink="http://www.w3.org/1999/xlink" x="0px" y="0px"
	 viewBox="0 0 104 104" style="enable-background:new 0 0 104 104;" xml:space="preserve">
<style type="text/css">
	.st0{filter:url(#a);}
	.st1{fill:#FFFFFF;}
	.st2{fill:#FF0000;}
</style>
<filter  filterUnits="objectBoundingBox" height="227.6%" id="a" width="227.6%" x="-63.8%" y="-60.3%">
	<feOffset  dy="2" in="SourceAlpha" result="shadowOffsetOuter1"></feOffset>
	<feGaussianBlur  in="shadowOffsetOuter1" result="shadowBlurOuter1" stdDeviation="12"></feGaussianBlur>
	<feColorMatrix  in="shadowBlurOuter1" values="0 0 0 0 0 0 0 0 0 0 0 0 0 0 0 0 0 0 0.1 0"></feColorMatrix>
</filter>
<g id="Слой_1_1_">
	<g>
		<g transform="translate(23 21)">
			<g class="st0">
				<path d="M29,0C13,0,0,13,0,29s13,29,29,29s29-13,29-29S45,0,29,0z M31.2,41c-0.4-0.4-0.8-0.7-1.2-1c-2.8,0.3-5.9-0.3-8.6-1.5
					c-0.9-0.4-1.5-1.1-1.9-2c-2.1-1.4-3.3-3.8-3.5-6.5c0-0.5,0-0.9,0.1-1.4c-0.9-3,0.9-6.9,4.6-6.6c1.5,0.1,2.8,0.4,4.2,1
					c0.8,0.3,1.6,0.8,2.4,1c0.1,0,0.3-0.1,0.7-0.4c0.4-0.3,0.9-0.6,1.3-0.9c0.8-0.6,1.6-1.2,2.5-1.7c2-1.1,4.4-0.8,6.1,0.8
					c3.7,3.3,2.7,8.5,0.4,12.4C42.8,38.6,35.8,45.4,31.2,41z"/>
			</g>
			<g>
				<path class="st1" d="M29,0C13,0,0,13,0,29s13,29,29,29s29-13,29-29S45,0,29,0z M31.2,41c-0.4-0.4-0.8-0.7-1.2-1
					c-2.8,0.3-5.9-0.3-8.6-1.5c-0.9-0.4-1.5-1.1-1.9-2c-2.1-1.4-3.3-3.8-3.5-6.5c0-0.5,0-0.9,0.1-1.4c-0.9-3,0.9-6.9,4.6-6.6
					c1.5,0.1,2.8,0.4,4.2,1c0.8,0.3,1.6,0.8,2.4,1c0.1,0,0.3-0.1,0.7-0.4c0.4-0.3,0.9-0.6,1.3-0.9c0.8-0.6,1.6-1.2,2.5-1.7
					c2-1.1,4.4-0.8,6.1,0.8c3.7,3.3,2.7,8.5,0.4,12.4C42.8,38.6,35.8,45.4,31.2,41z"/>
			</g>
		</g>
	</g>
	<rect x="37.3" y="39.3" class="st1" width="28" height="27.3"/>
</g>
<g id="Слой_2">
	<path class="st2" d="M68.2,33.8l-7.1-1.6c-0.8-0.2-1.6,0.2-1.9,1L56,40.8c-0.3,0.7-0.1,1.5,0.5,1.9l4.1,3.4
		c-2.5,5.2-6.8,9.6-12.1,12.1L45.1,54c-0.5-0.6-1.2-0.8-1.9-0.5l-7.7,3.3c-0.7,0.3-1.1,1.1-1,1.9l1.6,7.1c0.2,0.7,0.8,1.3,1.6,1.3
		c17.5,0,31.7-14.2,31.7-31.7C69.5,34.6,69,34,68.2,33.8z"/>
</g>
</svg>
